<?xml version="1.0" encoding="UTF-8"?>
<svg width="20px" height="20px" viewBox="0 0 20 20" version="1.1" xmlns="http://www.w3.org/2000/svg" xmlns:xlink="http://www.w3.org/1999/xlink">
    <title>Fill 1</title>
    <g id="homepage" stroke="none" stroke-width="1" fill="none" fill-rule="evenodd">
        <g id="1" transform="translate(-640.000000, -355.000000)" fill="currentColor">
            <g id="Placeholder" transform="translate(280.000000, 310.000000)">
                <path d="M379.69555,63.288394 L375.199064,58.7866338 C375.74551,58.0988622 376.182668,57.2938686 376.510538,56.3716327 C376.838407,55.4493917 377.002342,54.4880869 377.002342,53.4876928 C377.002342,52.3153507 376.775959,51.2133713 376.323183,50.1817139 C375.886025,49.1500566 375.281034,48.2512732 374.508194,47.4853485 C373.73536,46.7194188 372.833725,46.1098105 371.803276,45.6565083 C370.772827,45.2188327 369.672138,45 368.501169,45 C367.330204,45 366.22951,45.2188327 365.199061,45.6565083 C364.168613,46.1098105 363.266983,46.7194188 362.494145,47.4853485 C361.721308,48.2512732 361.116318,49.1500566 360.679157,50.1817139 C360.226383,51.2133713 360,52.3153507 360,53.4876928 C360,54.6756614 360.226383,55.7854565 360.679157,56.817119 C361.116318,57.8487764 361.721308,58.7475547 362.494145,59.5134845 C363.266983,60.2794101 364.168613,60.8890174 365.199061,61.3423216 C366.22951,61.7799947 367.330204,61.9988279 368.501169,61.9988279 C369.500396,61.9988279 370.444957,61.8347028 371.334891,61.5064482 C372.224826,61.178193 373.04449,60.7405266 373.79391,60.1934351 L378.290396,64.6951935 C378.399684,64.8046117 378.520683,64.8827665 378.653396,64.92966 C378.786104,64.9765536 378.899296,65 378.992971,65 C379.086651,65 379.199842,64.9765536 379.33255,64.92966 C379.465259,64.8827665 379.586257,64.8046117 379.69555,64.6951935 C379.898513,64.4919881 380,64.2575238 380,63.9917936 C380,63.7260635 379.898513,63.4915997 379.69555,63.288394 Z M362.014051,53.4876928 C362.014051,52.596715 362.177984,51.7526424 362.505855,50.9554544 C362.849338,50.173893 363.313814,49.4861316 363.899297,48.8921448 C364.48478,48.298163 365.175641,47.8370501 365.971895,47.508796 C366.752542,47.1649102 367.595621,46.9929673 368.501169,46.9929673 C369.406716,46.9929673 370.249801,47.1649102 371.030442,47.508796 C371.826701,47.8370501 372.517561,48.298163 373.103045,48.8921448 C373.688525,49.4861316 374.153001,50.173893 374.496484,50.9554544 C374.824354,51.7526424 374.988289,52.596715 374.988289,53.4876928 C374.988289,54.3943022 374.824354,55.2383697 374.496484,56.0199311 C374.168614,56.8014874 373.700235,57.4970646 373.091335,58.1066831 C373.091335,58.1066831 373.091335,58.1066831 373.091335,58.1066831 C373.091335,58.1066831 373.091335,58.1066831 373.091335,58.1066831 C372.498044,58.70067 371.811088,59.1656908 371.030442,59.5017607 C370.249801,59.8378307 369.406716,60.0058621 368.501169,60.0058621 C367.595621,60.0058621 366.752542,59.8339228 365.971895,59.490037 C365.175641,59.1461512 364.48478,58.6811304 363.899297,58.0949594 C363.313814,57.5087883 362.849338,56.817119 362.505855,56.0199311 C362.177984,55.2383697 362.014051,54.3943022 362.014051,53.4876928 Z" id="Fill-1"></path>
            </g>
        </g>
    </g>
</svg>